<?xml version="1.0" encoding="UTF-8"?><svg id="_レイヤー_2" xmlns="http://www.w3.org/2000/svg" viewBox="0 0 341.2938184276 93.78935468"><defs><style>.cls-1{fill:#ecae31;}.cls-2{fill:#e06a36;}.cls-3{fill:#e16a35;}</style></defs><g id="_レイヤー_1-2"><path class="cls-1" d="M148.0812173567,43.1226821101c-.0412527506,1.7779024826.662452362,3.4426220956.806642767,5.1855026767.683247063,8.2582584545-.2577714245,16.2723725668-3.1754518405,24.0947502846-2.6871777587,7.2043117195-6.7480229089,13.2048173548-13.3855205576,17.2672022023-6.5735338735,4.0231940583-13.8006117937,4.7528175466-21.1731749323,3.6640078794-12.2133779025-1.803704167-19.5455946598-9.564551048-23.9068882797-20.6367665675-.2273174166-.5770973488-.251465684-1.2345812354-.3702130084-1.8546392159-.356708106-.8666874341-.1534094755-1.8893399346-.7459807656-2.6903308883-1.5992368101-7.8413177698-1.3264843961-15.6484928354.8980436353-23.3030866089,1.2932076953-4.4498870205,3.0294745931-8.767621921,5.5783662953-12.7172813411,1.8184357476-2.8178080143,3.7782392072-5.5130085529,5.9429080215-8.0659770226.2660841257-.313837764.6922589633-.6537399983.3825396306-1.0754951806-.1507939527-.2053915295-.6199047981-.2200653656-.9501598692-.2420388106-2.5344415861-.1686566532-5.0735962926.1310588008-7.6162210985-.2428174356-3.5880958795-.527602756-5.5876889508-2.5747245486-6.50075242-6.0064945589-1.1376099854-4.2756859088.5577926059-9.0953857167,3.9940716302-10.8454685786,1.4116313164-.7189368609,2.9674530378-.8591891136,4.5218245683-.8608753232,6.8591437832-.0074415458,13.718442944-.0166804175,20.5773536608.0286225777,2.3788050318.0157103805,4.6876642512.4984400073,6.3025035611,2.4307924819,2.1230017235,2.540348257,2.4682248358,5.5810555073,1.9329749289,8.7253004106-.7444399378,4.372824238-3.0237256222,8.0334061676-5.8569065246,11.2868775525-5.7120946091,6.5594934655-10.4807623781,13.6287948625-12.7018332581,22.164101052-1.6027198578,6.1590855839-1.6151241689,12.3574073768.6251876363,18.3353458657,1.5690806092,4.1868415576,4.7130425911,7.0300295011,9.2390882507,7.791356002,3.776167506.6351957473,7.6240935631.8051695743,11.1860212666-1.0349288206,4.7284767652-2.4427735734,7.1558631907-6.6976020663,8.1615187564-11.6630491103,2.0658227697-10.2002269473,1.1469196927-20.4824723005-.1841224461-30.6538933689-.691637453-5.2853094185-1.4982284274-10.6208758334-2.970301627-15.804939676-.4988915505-1.7569088073-.4528479908-3.6869578498-.1261666044-5.4966574289.5086285463-2.8178372128,2.6716658958-4.0192538916,5.1999700671-4.5611995681,1.152513286-.2470398538,2.4148267368-.2691008941,3.5835251887-.0960125673,3.4023290205.5039130919,4.0305206236,1.4177997972,2.9758434277,4.5468793575-2.5509634034,7.5684810981.5864727197,14.6914719298,6.1749126621,18.6145250865,3.1182469905,2.1889872588,6.6618401381,2.4440193733,10.3079824962,2.2485358463,3.879156953-.2079772132,4.6947339316.18439461,6.0474512444,3.8411126132,1.8161050837,4.9093049406-.9296759234,10.4774466287-6.4247598295,12.1330563297-1.8141369675.5465752507-3.4516096133-.3246930935-4.8503963821-1.511025536-.6450500717-.5470683798-1.2293216088-1.1661173922-1.8411726685-1.7525225534-.4616786173-.486569221-.7616868505-1.1109193716-1.2326104345-1.5725174416-.373890278-.3665214748-.238090263.2659880164-.4260971488.3300493843Z"/><path class="cls-1" d="M18.0846585309,59.7058914905c-1.1388659542,3.3544395755-3.1687835522,4.9564279716-6.6354518438,5.1247666862-2.0974550578.1018506323-4.2080783664.1875772395-6.2060140767-.697732308-3.5839136326-1.5880574979-4.7607823562-4.7835732322-4.8697279442-8.2496027405-.3180061376-10.1182052972-.6652103142-20.2585170544.03182651-30.3626130186.4266798148-6.1850559703.8473775923-12.4045028315,2.1582335924-18.5082022271C4.0251617732.2068026633,11.4075007519-1.5809899783,16.3704293548,1.3698306988c3.0650560616,1.8223903547,3.3622416019,4.8553656971,2.8430214831,8.022202079-.5171095731,3.1540004251-.0874387397,6.3552455413-.8270360759,9.4878467574.1835915727.0742743319.3671831453.1485486638.550774718.2228262399.975136817-1.6285362626,1.9327030181-3.2679635418,2.9287510693-4.8835519203,2.9543236313-4.7918380117,6.3455043096-9.1102347434,11.9793145088-10.9662049213,7.4923463136-2.468230554,18.2014101663-.3295830204,23.2457177828,7.0653620415,3.7784722737,5.5392222596,5.6877650679,11.7462127437,6.8847810858,18.3043403712,1.3293847779,7.2833356636,1.6337306355,14.5916295011,1.5776911175,21.9576129591-.0211572487,2.7819945108-.7246292949,5.4635334257-.8655438224,8.216595531-.5066992745.9461720646-.2026123795,2.0973495905-.7627356493,3.0300125122-.9285105914,3.8325217846-2.6207538383,7.2933085515-4.4287015984,10.8105326503-3.0877800344,6.0070979933-7.9360011302,10.0861908345-13.2776367165,13.6533312813-7.5450711097,5.0385988582-16.0227185244,7.3625347983-25.0892858558,7.3136111971-4.162746954-.0224633299-7.0096140326-2.6238103633-7.7177474065-6.7008722911-.7839835349-4.5137602207.9210783633-8.3148190687,4.3528773337-9.8250335371,1.3608098958-.5988404506,2.7820487265-.3089129612,4.1729112382-.4530883481,8.9037445636-.9229495754,16.6345954803-4.203737719,21.8805443664-11.7843588778,3.1778990375-4.5922261503,4.0640562871-10.0582511758,4.2415363411-15.5171193404.2296869249-7.0648113265-.0433373999-14.131900131-2.0100681106-21.0050529256-.3260987205-1.1396214339-.687740065-2.296518609-1.2318205984-3.3414170732-2.9326873017-5.6321414148-7.5745669558-5.7281815584-12.2278927592-2.0711877921-4.0237099058,3.1621905863-6.081867381,7.7440967117-8.0820301701,12.3092267137-2.6024581269,5.9397793776-4.7155156845,12.0282177242-5.6575441264,18.4777823235-.6565609616,1.9528887078.0629797171,4.0817855859-.7656489791,6.0126651617Z"/><path class="cls-3" d="M203.9568855406,49.931918616c-7.900251336,4.4971819978-8.5620303951,13.6355007699-5.0335865627,18.7892323043,3.0094826763,4.3957660978,7.7390211884,5.7223418712,12.7660818923,5.9010103436,9.2001920603.326964083,18.3326653868-.5766691051,27.4327165893-1.8553983752.0698163312-.0098106744.1377940275-.0359530072.2076621512-.041585061,3.2846304949-.2647908805,6.8131261198-1.133496251,8.8756600639,2.565750896,2.2598375892,4.0531776075,1.666683633,10.0765683278-1.1472822405,12.9641638478-1.1149637014,1.1440985274-2.5562462415,1.7858541899-4.1016058717,2.062603452-14.0673174298,2.5192475208-28.2199889499,3.3713032943-42.3270830432.7650963435-10.7304541679-1.9823856164-21.3188673207-10.5595818283-22.0500483707-24.2622065576-.4189238833-7.8507585973.8335489867-15.3374321671,5.4631797073-21.9233404841,3.4398527089-4.8933496176,8.3103445929-8.1853921361,13.1623465435-11.476685228.9958408811.0326698053,1.2033994473.8812606978,1.4776667928,1.5530972376,1.6950141473,4.1518293889,3.4504701777,8.2776819028,5.2006692662,12.4060941462.3456633489.8154052482.8285510075,1.6806781803.0736230822,2.5521671349Z"/><path class="cls-1" d="M203.9568855406,49.931918616c.1768196993-1.130284423-.405716788-2.0643845566-.8483357541-3.0041459424-2.0945935205-4.4473500009-3.5466748032-9.176030174-5.9037787647-13.5069789888-1.4853838799-4.6799901595-3.5687125249-9.1172667-5.4949285286-13.6184926811-1.2415705423-2.9013496053-2.8074400146-5.7181097202-3.6145230182-8.7374907575-.999052018-3.7375571168-.584064367-5.9097869067,4.271588957-8.7702749233,3.8283484806-2.2553094778,8.1289412547-1.6415032068,10.2388135716,1.3850050875,1.0426613287,1.4955998402,1.513507224,3.289867235,2.2015968886,4.9706321995,2.518126939,6.1506553467,5.0945981637,12.2772982242,7.6491093554,18.4129861283,1.2482517788,1.0651524458,1.4940591287,2.6761956012,2.138384105,4.0559125276,1.8068083244,3.869065249,3.6937655899,7.7069660343,5.1113789436,11.7474552993-.063160991,1.5597966565.8691304551,2.8004900977,1.4228443992,4.1343622358,2.393954347,5.7668337987-1.5410090577,8.8367508397-5.3877956791,10.186808644-1.0441374159.3664468566-2.2042901002.502128743-3.3189689426.5460431903-3.229393761.1272402942-5.4575602178-1.5195385022-6.7851581533-4.9475711127-.4078920743-1.0531940642-.7146592328-2.1414781597-1.6802273798-2.8542509064Z"/><path class="cls-3" d="M219.7061912962,42.866526565c-1.6642493841-1.7325281135-2.1378661797-4.0707647986-3.0794025926-6.1635691659-1.4361550796-3.1923687918-3.1538025627-6.2652705617-4.1706971075-9.6399478975,9.0218185851-3.3476785155,18.4817242898-4.4133695103,27.9544486458-5.4667290323,8.4681564335-.941657662,9.7675274399,5.5856542609,8.8369710435,11.4734377131-.6957549591,4.4023584557-2.9073737024,5.8950019543-7.3745830472,6.4347837023-7.4186584907.8964146859-14.819111907,1.9682892604-22.166736942,3.3620246803Z"/><path class="cls-2" d="M155.1319428679,3.2195208758c-7.1790733122-.0169998829-12.7963164451,5.4954293-12.9092899004,12.6685112776-.1114885907,7.0803891855,5.6916101062,13.0240197777,12.7681040159,13.0775011612,7.0894864758.0534813834,12.9845230449-5.7460845077,13.0308013278-12.8200211829.0470207153-7.1959139372-5.6497864174-12.9088672863-12.8896154433-12.9259912559ZM155.0841797203,21.6686127739c-3.1443247257.0121605002-5.5830912449-2.3135972023-5.6516424982-5.3719629971-.0858746747-3.830185296,2.8148085026-6.3024894343,5.5863084517-6.0105133432,3.4951240094.0009926939,5.8095331106,2.3499546161,5.7845378882,5.8709157647-.0226441865,3.1941166846-2.4140187743,5.4987796419-5.7192038417,5.5115605757Z"/><path class="cls-3" d="M340.3332189584,51.8701891319c-2.7035673894-12.3865862123-11.7856185442-21.4849979936-25.8177136299-20.2912835884-1.4627154611.12433491-2.9239460575.2644288355-4.8807502452.4421210422,3.1171022064-2.4457495767,5.781939375-4.5145236478,8.4227712312-6.6135748827,3.6965706527-2.9381257472,7.965804122-5.195883918,11.0852573641-8.8046984761,2.4839311536-2.8736006442,3.5796375582-6.2061981267,1.852492443-10.0021354834-1.586701663-3.487333643-4.2233264025-5.5722389899-8.0355927625-5.5975526841-13.5027408227-.0897147105-27.0064715551-.073459348-40.5094598552-.0012408674-2.7418026553.0146422349-5.1225357127,1.1433351902-6.5166999205,3.6859965081-3.7963040646,6.923791724.3916330627,14.2679893113,8.1769023858,14.3372297103,5.3023280793.0471529599,10.6051511134-.0009926939,15.9076029314.0297808168.657300104.0037226021,1.4036920896-.3052533718,2.2938684729.604674667-.2868263632.1259480376-.5866452924.1949402631-.8101174287.3648150053-6.9648815803,5.2966423481-13.9307530704,10.5917956553-20.877073842,15.912634917-3.4753258135,2.6620327584-6.962778022,5.3122772769-10.354332719,8.0790392409-3.9358813457,3.2107443073-5.1142452182,8.3591030052-2.5198153837,12.6046066083,2.1734706941,3.556574042,6.2944651715,5.6083482302,10.816373116,1.9197459006,4.0060412024-3.2678242061,8.162424955-6.3476570063,12.8143822988-8.5506929264,6.4851465458-3.0711467287,13.4755183033-3.5013554442,20.5328327107-2.9313009767,3.282912097.2651733559,6.4360222722,1.180188951,8.7929974946,3.5780410474,5.6287508342,5.7266028901,3.4420400966,15.8767738502.027841213,19.8125569589-.8712443585,1.0043580453-1.3259841706.9987741422-1.8992656808-.2522683353-1.5737090969-3.4349690402-3.6903837165-6.5530205553-6.4522320451-9.1016380365-5.1917056597-4.7908648101-11.5847905945-6.2661320205-18.4389260164-6.0457539764-6.6003472982.2120642327-11.6496296861,2.9767167222-14.46431445,9.2290751149-4.9022807833,10.8903483434-.7757180633,23.1662491867,11.7697799875,26.6318676508,9.8972418711,2.7342512391,19.5807869652,2.2302109154,29.1190627968-1.2306922527,8.6065232369-3.1226427244,15.0393283023-8.738808419,18.5929807283-17.3825663978,2.7384617097-6.6611001028,2.8852158368-13.4903377335,1.3711488051-20.4267863047ZM298.1576171791,80.8320334342c-4.1892982533,0-7.5854312832-3.4056845704-7.5854312832-7.6067651218s3.3961330299-7.6067651218,7.5854312832-7.6067651218,7.5854312831,3.4056845703,7.5854312831,7.6067651218-3.3961330299,7.6067651218-7.5854312831,7.6067651218Z"/></g></svg>